/vscmnt/brussel_pixiu_data/_data_brussel/112/vsc11236/PredSimResults/SUBJ09mtu3D/worker1.mot
version=1
nRows=5
nColumns=50
inDegrees=yes
endheader
                time	         pelvis_tilt	         pelvis_list	     pelvis_rotation	           pelvis_tx	           pelvis_ty	           pelvis_tz	       hip_flexion_r	     hip_adduction_r	      hip_rotation_r	        knee_angle_r	       ankle_angle_r	         mtp_angle_r	       hip_flexion_l	     hip_adduction_l	      hip_rotation_l	        knee_angle_l	       ankle_angle_l	         mtp_angle_l	    lumbar_extension	      lumbar_bending	     lumbar_rotation	 ercspn_r/activation	 intobl_r/activation	 extobl_r/activation	    abd_r/activation	    add_r/activation	hamstrings_r/activation	bifemsh_r/activation	glut_max_r/activation	iliopsoas_r/activation	rect_fem_r/activation	  vasti_r/activation	gastroc_r/activation	 soleus_r/activation	tib_ant_r/activation	 ercspn_l/activation	 intobl_l/activation	 extobl_l/activation	    abd_l/activation	    add_l/activation	hamstrings_l/activation	bifemsh_l/activation	glut_max_l/activation	iliopsoas_l/activation	rect_fem_l/activation	  vasti_l/activation	gastroc_l/activation	 soleus_l/activation	tib_ant_l/activation	
          1.27286097	         -9.13799844	         -5.24761507	          9.12814990	          1.57834761	          0.97742231	         -0.01369142	         32.92441492	          1.14316709	         -5.87024390	         -3.37004704	          6.42402925	          0.25104611	         -7.38685190	         -5.37515641	          4.98266388	        -14.01743276	          7.66705064	         36.19035879	         -1.73811355	          4.29975328	         -3.28443792	          0.08157198	          0.09563486	          0.01000004	          0.02020724	          0.09695263	          0.08393319	          0.21355959	          0.07768459	          0.12303410	          0.01000015	          0.01000003	          0.01418239	          0.01000003	          0.28752505	          0.05882098	          0.01000001	          0.01000007	          0.03107266	          0.02774094	          0.01334805	          0.01629943	          0.02788644	          0.28748990	          0.12053780	          0.01000023	          0.28999765	          0.21147314	          0.01000000	
          1.28558958	         -9.18037577	         -5.19419113	          9.12405465	          1.59847154	          0.97528133	         -0.01300814	         33.02691471	          1.21143884	         -6.15794575	         -5.48577087	          5.99620335	          0.19949647	         -8.43603057	         -5.50873120	          4.59692519	        -14.02958774	          6.25231804	         37.63996513	         -1.30610571	          4.49010713	         -3.46451350	          0.06729567	          0.07889733	          0.01000004	          0.06764644	          0.07998450	          0.07560109	          0.17618345	          0.13883216	          0.10150127	          0.01000006	          0.01000001	          0.01543795	          0.01212202	          0.32501383	          0.06701613	          0.01000001	          0.01000005	          0.02563449	          0.02718926	          0.01246740	          0.01344688	          0.02402848	          0.31216633	          0.09944186	          0.02334428	          0.26445271	          0.17446214	          0.00999999	
          1.29831819	         -9.21206413	         -5.13848471	          9.07333955	          1.61858340	          0.97352723	         -0.01226300	         33.01229286	          1.28402271	         -6.40268235	         -7.42192024	          5.48867516	          0.19219124	         -9.19270881	         -5.60720849	          4.20416442	        -14.57342335	          4.75483524	         38.98993045	         -0.90081816	          4.69146471	         -3.60709035	          0.06925207	          0.06508910	          0.01000002	          0.13205489	          0.10750952	          0.06649844	          0.14534871	          0.19594943	          0.08373701	          0.01000002	          0.01000000	          0.01273608	          0.01000049	          0.36845876	          0.10035742	          0.01000001	          0.01000005	          0.02114808	          0.03572529	          0.01464882	          0.01109358	          0.01982318	          0.36039389	          0.08203804	          0.02158835	          0.22327889	          0.14392862	          0.01000000	
          1.31104680	         -9.23247129	         -5.07657938	          8.97841853	          1.63838515	          0.97241141	         -0.01145399	         32.95701091	          1.37141435	         -6.57285261	         -9.27120159	          4.98281173	          0.15096333	         -9.53597171	         -5.66053069	          3.83382147	        -15.83424426	          3.22434510	         40.06423057	         -0.55283503	          4.90011192	         -3.70856553	          0.07924809	          0.05369753	          0.01000002	          0.17954183	          0.15369029	          0.05486023	          0.11991050	          0.24221025	          0.06908177	          0.01000006	          0.01000008	          0.01050710	          0.01000004	          0.38678496	          0.13712946	          0.01000001	          0.01000005	          0.01744685	          0.06166086	          0.01208521	          0.01000019	          0.01635384	          0.39495257	          0.06768014	          0.01781007	          0.18420170	          0.11873893	          0.01000000	
          1.32377541	         -9.23769106	         -5.00986522	          8.84107902	          1.65773211	          0.97206607	         -0.01059766	         32.88098748	          1.47707964	         -6.65955453	        -11.12896996	          4.80458454	          0.12015201	         -9.36729831	         -5.66801696	          3.50104838	        -17.97802145	          1.73907870	         40.58733813	         -0.27356425	          5.11884381	         -3.76549792	          0.08300607	          0.04429965	          0.01000002	          0.20013695	          0.16695119	          0.04828208	          0.09892437	          0.26835775	          0.05699141	          0.01000008	          0.05018284	          0.01000028	          0.01000124	          0.38464657	          0.16649992	          0.01000002	          0.01000006	          0.01439339	          0.08807751	          0.01000034	          0.01000052	          0.01349168	          0.38343690	          0.05583509	          0.01469304	          0.15196361	          0.09795782	          0.01000000	
